<?xml version="1.0" encoding="utf-8"?>
<!-- Generator: Adobe Illustrator 26.4.0, SVG Export Plug-In . SVG Version: 6.00 Build 0)  -->
<svg version="1.1" id="Livello_1" xmlns="http://www.w3.org/2000/svg" xmlns:xlink="http://www.w3.org/1999/xlink" x="0px" y="0px"
	 viewBox="0 0 800 600" style="enable-background:new 0 0 800 600;" xml:space="preserve">
<style type="text/css">
	.st0{fill:none;stroke:#FFFFFF;stroke-width:35;stroke-linecap:round;stroke-linejoin:round;}
</style>
<path id="Icon_ionic-md-flame" class="st0" d="M561.1,258.2l-0.3,13.2c-1.1,14.8-11,55.1-30.7,69.4c16.3-32.8,21.2-69.4,14.2-104.9
	c-27.2-123.7-130-176.2-261.2-196l-23.9-2.8c54.8,59.9,77.9,103.6,69,148.2c-4.3,14.2-10.9,27.7-19.4,40.1c2.2-12,3.1-24.2,2.8-36.4
	c-0.1-19.2-9.2-37.5-25-50.2c4.4,20.9-0.1,42.6-12.6,60.5c-34.3,53.5-118.4,73.3-125.5,172.3v4.8c-1.6,64.7,34.8,125.1,95.3,158.6
	c-12.6-23.8-15.4-50.9-7.9-76.4c5.3,24.2,17.2,46.8,34.6,65.7c11.5,14.5,27.5,25.5,45.9,31.6c21.4,6.8,43.9,9.9,66.5,9.1
	c77.4,0,126.9-23,165.3-64.1c38.4-41.1,44.5-86.3,44.5-135C594.3,327.9,583.2,290.4,561.1,258.2z"/>
</svg>
