<?xml version="1.0" encoding="UTF-8"?>
<svg xmlns="http://www.w3.org/2000/svg" viewBox="0 0 300 300">
  <defs>
    <style>
      .uuid-b317bbcf-9d97-490f-9f7b-639fd2d109bd {
        fill: none;
        stroke: #fff;
        stroke-miterlimit: 10;
        stroke-width: 6px;
      }

      .uuid-1ab89163-02c5-44fc-8d0e-09bce1b2baeb {
        fill: none;
      }
    </style>
  </defs>
  <g id="uuid-31c80167-ccd0-4ac7-a9c0-e0eb8293ef29" data-name="Livello 2">
    <g id="uuid-c56c9803-fd26-4041-b4ac-78ccd232ec24" data-name="Tracciato 166">
      <path class="uuid-1ab89163-02c5-44fc-8d0e-09bce1b2baeb" d="M33.33,0h233.33c18.41,0,33.33,14.92,33.33,33.33h0v233.33c0,18.41-14.92,33.33-33.33,33.33H33.33c-18.41,0-33.33-14.92-33.33-33.33H0V33.33C0,14.92,14.92,0,33.33,0h0Z"/>
    </g>
  </g>
  <g id="uuid-2c678ff5-1ee6-4786-b604-fb8a715d7646" data-name="Livello 3">
    <g id="uuid-cdecf5d3-69a4-4663-8b53-48d84a94dd37" data-name="Settings">
      <path class="uuid-b317bbcf-9d97-490f-9f7b-639fd2d109bd dashboardIconStroke" d="M68.29,195.95l4.39,7.18c3.67,5.95,11.46,8.32,18.13,5.5l15.11-6.42c5.5,4.13,11.56,7.43,18.08,9.85l1.68,15.54c.76,6.84,6.83,12,14.12,12h20.4c7.29,0,13.37-5.16,14.12-12.01l1.68-15.53c6.52-2.42,12.58-5.72,18.08-9.85l15.12,6.42c6.65,2.81,14.44,.44,18.13-5.52l10.17-16.62c3.67-5.94,1.96-13.47-3.96-17.53h0s0,0-.02-.01l-13.44-9.13c.52-3.27,.78-6.57,.78-9.83s-.26-6.56-.78-9.83l13.46-9.14c5.92-4.06,7.63-11.59,3.97-17.52l-10.19-16.65c-3.67-5.95-11.46-8.32-18.13-5.5l-15.11,6.42c-5.5-4.13-11.56-7.43-18.08-9.85l-1.68-15.54c-.76-6.84-6.83-12-14.12-12h-20.4c-7.29,0-13.37,5.16-14.12,12.01l-1.68,15.53c-6.52,2.42-12.58,5.72-18.08,9.85l-15.12-6.42c-6.66-2.81-14.44-.44-18.13,5.52l-10.17,16.62c-3.67,5.94-1.96,13.48,3.97,17.54l13.44,9.13c-.52,3.27-.78,6.57-.78,9.83s.26,6.56,.78,9.83l-13.45,9.14c-5.93,4.05-7.63,11.59-3.97,17.52l5.79,9.47"/>
      <path class="uuid-b317bbcf-9d97-490f-9f7b-639fd2d109bd dashboardIconStroke" d="M130.96,160.43c3.82,6.17,10.93,10.32,19.04,10.32,12.15,0,22.04-9.31,22.04-20.75s-9.89-20.75-22.04-20.75-22.04,9.31-22.04,20.75c0,3.8,1.09,7.37,2.99,10.43"/>
    </g>
  </g>
</svg>