<?xml version="1.0" encoding="UTF-8"?>
<svg xmlns="http://www.w3.org/2000/svg" viewBox="0 0 300 300">
  <defs>
    <style>
      .uuid-24d8f15d-b9fc-4b85-9127-8ba51456926e {
        stroke-linecap: square;
      }

      .uuid-24d8f15d-b9fc-4b85-9127-8ba51456926e, .uuid-77ef1813-e2ff-4ac7-bbea-ff4a895e9be2, .uuid-fda15bf5-148e-4d4f-9b78-a20f2e6dafe3, .uuid-374c3a8c-3a18-429f-9e43-f3e5d48e1dd1 {
        fill: none;
        stroke: #fff;
        stroke-width: 6px;
      }

      .uuid-24d8f15d-b9fc-4b85-9127-8ba51456926e, .uuid-fda15bf5-148e-4d4f-9b78-a20f2e6dafe3, .uuid-374c3a8c-3a18-429f-9e43-f3e5d48e1dd1 {
        stroke-linejoin: round;
      }

      .uuid-77ef1813-e2ff-4ac7-bbea-ff4a895e9be2 {
        stroke-miterlimit: 10;
      }

      .uuid-c9b86cc0-d392-42ce-a27a-05256e5152c0 {
        fill: none;
      }

      .uuid-374c3a8c-3a18-429f-9e43-f3e5d48e1dd1 {
        stroke-linecap: round;
      }
    </style>
  </defs>
  <g id="uuid-ae9dc453-a317-46c8-9c8f-6f8b3e749a30" data-name="Livello 2">
    <g id="uuid-0e6a2eba-7634-4878-8c25-9ea0bef68a54" data-name="Tracciato 166">
      <path class="uuid-c9b86cc0-d392-42ce-a27a-05256e5152c0" d="M33.33,0h233.33c18.41,0,33.33,14.92,33.33,33.33h0v233.33c0,18.41-14.92,33.33-33.33,33.33H33.33c-18.41,0-33.33-14.92-33.33-33.33H0V33.33C0,14.92,14.92,0,33.33,0h0Z"/>
    </g>
  </g>
  <g id="uuid-c68bb717-c94a-42ae-a934-eaaff76cfdf7" data-name="Livello 3">
    <g id="uuid-d0107cc6-8e8f-4852-b2ea-8a654750f16c" data-name="Offers">
      <path class="uuid-fda15bf5-148e-4d4f-9b78-a20f2e6dafe3 dashboardIconStroke" d="M97.55,228.06c15.56,.09,57.75,.86,66.15,3.41,.68,.21,1.53,.31,2.52,.31h0c11.65,0,43.25-13.78,68.77-25.88,1.86-.88,3.22-2.53,3.73-4.51,.52-2,.12-4.11-1.09-5.8-5.22-7.28-14.7-10.1-23.04-6.84l-32.3,9.76"/>
      <path class="uuid-fda15bf5-148e-4d4f-9b78-a20f2e6dafe3 dashboardIconStroke" d="M129.46,201.38h48.12c2.94,0,5.34-2.39,5.34-5.34,0-9.22-7.21-16.69-16.44-16.99-8.28-.27-14.84-.73-18.96-1.33-4.12-.6-8.17-1.97-12.46-3.4-6.54-2.18-13.94-4.67-22.77-4.67-14.99,0-30.87,17.9-31.53,18.66"/>
      <path class="uuid-24d8f15d-b9fc-4b85-9127-8ba51456926e dashboardIconStroke" d="M80.07,238.53c-.87,0-1.71-.51-2.07-1.37l-18.06-42.69c-.23-.55-.23-1.17,0-1.72,.22-.55,.66-1,1.2-1.22l17.04-7.21c1.14-.48,2.46,.05,2.94,1.19l18.06,42.68c.23,.55,.23,1.17,0,1.71-.22,.56-.66,1-1.2,1.22l-17.03,7.21c-.29,.13-.58,.19-.88,.19h0Z"/>
      <circle class="uuid-374c3a8c-3a18-429f-9e43-f3e5d48e1dd1 dashboardIconStroke" cx="150.32" cy="103.65" r="43.2"/>
      <path class="uuid-77ef1813-e2ff-4ac7-bbea-ff4a895e9be2 dashboardIconStroke" d="M166.33,98.94l-5.11-2.77c-1.44-.79-2.62-1.97-3.41-3.41l-2.79-5.11c-.73-1.37-2-2.36-3.5-2.73-2.3-.54-4.68,.52-5.82,2.58l-2.87,5.24c-.78,1.45-1.96,2.64-3.41,3.43l-5.11,2.8c-1.37,.72-2.37,1.99-2.74,3.49-.54,2.31,.52,4.69,2.6,5.83l5.24,2.86c1.44,.79,2.62,1.97,3.41,3.41l2.8,5.11c.72,1.37,1.99,2.36,3.49,2.73,2.31,.54,4.69-.53,5.83-2.61l2.86-5.24h0c.79-1.44,1.97-2.62,3.41-3.41l5.24-2.87c2.08-1.14,3.14-3.52,2.6-5.82-.36-1.51-1.36-2.79-2.73-3.52h0Z"/>
    </g>
  </g>
</svg>