<?xml version="1.0" encoding="UTF-8"?>
<svg xmlns="http://www.w3.org/2000/svg" viewBox="0 0 300 300">
  <defs>
    <style>
      .uuid-772f0fb9-0c7e-4eeb-ab8c-a1f5e0081c84, .uuid-dd08017d-6946-4369-92b6-5baca5f70c34 {
        stroke-miterlimit: 10;
      }

      .uuid-772f0fb9-0c7e-4eeb-ab8c-a1f5e0081c84, .uuid-dd08017d-6946-4369-92b6-5baca5f70c34, .uuid-e5591cff-4e24-4a8b-b6b4-e15154183c34 {
        fill: none;
        stroke: #fff;
        stroke-width: 6px;
      }

      .uuid-772f0fb9-0c7e-4eeb-ab8c-a1f5e0081c84, .uuid-e5591cff-4e24-4a8b-b6b4-e15154183c34 {
        stroke-linecap: round;
      }

      .uuid-747e0446-458a-4837-a298-a013b4b3a9f6 {
        fill: transparent;
      }

      .uuid-e5591cff-4e24-4a8b-b6b4-e15154183c34 {
        stroke-linejoin: round;
      }
    </style>
  </defs>
  <g id="uuid-9c1a2b0e-2fc3-4868-a9bc-e12bef560edd" data-name="Livello 2">
    <g id="uuid-b8efa7ac-742e-4709-ad10-2a47ce4a3e0b" data-name="Tracciato 166">
      <path class="uuid-747e0446-458a-4837-a298-a013b4b3a9f6" d="M33.33,0h233.33c18.41,0,33.33,14.92,33.33,33.33h0v233.33c0,18.41-14.92,33.33-33.33,33.33H33.33c-18.41,0-33.33-14.92-33.33-33.33H0V33.33C0,14.92,14.92,0,33.33,0h0Z"/>
    </g>
  </g>
  <g id="uuid-73368064-1602-4837-97ec-39b549c96965" data-name="Livello 3">
    <g id="uuid-fbdd9ccc-15dc-4185-9769-08a9396772f6" data-name="Artist">
      <g>
        <path class="uuid-dd08017d-6946-4369-92b6-5baca5f70c34" d="M62.66,104.04l1.38,2.43c1.16,2.01,3.61,2.81,5.71,1.86l4.76-2.17c1.73,1.4,3.64,2.51,5.7,3.33l.53,5.26c.24,2.31,2.15,4.06,4.45,4.06h6.43c2.3,0,4.21-1.74,4.45-4.06l.53-5.25c2.05-.82,3.96-1.94,5.7-3.33l4.76,2.17c2.1,.95,4.55,.15,5.71-1.87l3.2-5.62c1.16-2.01,.62-4.56-1.25-5.93h0s0,0,0,0l-4.23-3.09c.16-1.11,.25-2.22,.25-3.32s-.08-2.22-.25-3.32l4.24-3.09c1.87-1.37,2.4-3.92,1.25-5.92l-3.21-5.63c-1.16-2.01-3.61-2.81-5.71-1.86l-4.76,2.17c-1.73-1.4-3.64-2.51-5.7-3.33l-.53-5.26c-.24-2.31-2.15-4.06-4.45-4.06h-6.43c-2.3,0-4.21,1.74-4.45,4.06l-.53,5.25c-2.05,.82-3.96,1.93-5.7,3.33l-4.76-2.17c-2.1-.95-4.55-.15-5.71,1.87l-3.2,5.62c-1.16,2.01-.62,4.56,1.25,5.93l4.23,3.09c-.16,1.11-.25,2.22-.25,3.32s.08,2.22,.25,3.32l-4.24,3.09c-1.87,1.37-2.4,3.92-1.25,5.92l1.83,3.2"/>
        <path class="uuid-dd08017d-6946-4369-92b6-5baca5f70c34" d="M82.41,92.03c1.2,2.09,3.44,3.49,6,3.49,3.83,0,6.94-3.15,6.94-7.02s-3.11-7.02-6.94-7.02-6.94,3.15-6.94,7.02c0,1.29,.34,2.49,.94,3.53"/>
      </g>
      <path class="uuid-e5591cff-4e24-4a8b-b6b4-e15154183c34" d="M128.26,66.19c6.46-3.76,13.74-5.88,21.45-5.88,26.62,0,48.19,25.25,48.19,56.4s-21.58,56.4-48.19,56.4c-9.98,0-19.25-3.55-26.95-9.63-10.58-8.36-17.43-16.2-19.76-31.48"/>
      <path class="uuid-772f0fb9-0c7e-4eeb-ab8c-a1f5e0081c84" d="M121.71,163.38c1.38,5.21,3.77,20.6-2.88,25.69-10.13,7.76-47.13,7.44-53.42,25.47l-4.52,14.45c-1.45,4.62,2.41,9.21,7.75,9.21h81.44s-.67,0-.67,0h81.44c5.34,0,9.2-4.59,7.75-9.21l-4.52-14.45c-6.29-18.04-43.29-17.72-53.42-25.47-6.65-5.09-4.26-20.49-2.88-25.69"/>
    </g>
  </g>
</svg>