<?xml version="1.0" encoding="UTF-8"?>
<svg xmlns="http://www.w3.org/2000/svg" viewBox="0 0 300 300">
  <defs>
    <style>
      .uuid-05474312-b897-4927-bf44-1d462791a017 {
        stroke-miterlimit: 10;
      }

      .uuid-05474312-b897-4927-bf44-1d462791a017, .uuid-6735b841-a506-44aa-8b9a-64d7ddec4dc1 {
        fill: none;
        stroke: #fff;
        stroke-width: 6px;
      }

      .uuid-49977430-2029-4882-9c5e-88acbeff09ce {
        fill: transparent;
      }

      .uuid-6735b841-a506-44aa-8b9a-64d7ddec4dc1 {
        stroke-linecap: round;
        stroke-linejoin: round;
      }
    </style>
  </defs>
  <g id="uuid-8689612e-9d5c-4b57-8ef0-091e256ce853" data-name="Livello 2">
    <g id="uuid-43f86f7a-57f9-40ba-b3dd-8a807f6de2b9" data-name="Tracciato 166">
      <path class="uuid-49977430-2029-4882-9c5e-88acbeff09ce" d="M33.33,0h233.33c18.41,0,33.33,14.92,33.33,33.33h0v233.33c0,18.41-14.92,33.33-33.33,33.33H33.33c-18.41,0-33.33-14.92-33.33-33.33H0V33.33C0,14.92,14.92,0,33.33,0h0Z"/>
    </g>
  </g>
  <g id="uuid-c7cdce20-8b27-43c7-9e32-496a88044832" data-name="Livello 3">
    <g id="uuid-262350c7-0a1c-4e41-8bc3-5f64fe6a0012" data-name="Collections">
      <path class="uuid-05474312-b897-4927-bf44-1d462791a017 dashboardIconStroke" d="M123.17,67.31c-3.55-3.82-7.93-5.53-12.21-5.52-3.74,0-7.38,1.26-10.5,3.37-2.32,1.57-4.36,3.62-5.93,6.01-1.57-2.39-3.61-4.44-5.93-6.01-3.12-2.11-6.76-3.37-10.5-3.37-4.28-.01-8.66,1.7-12.21,5.52-3.23,3.44-4.73,7.47-4.72,11.59,0,3.71,1.17,7.47,3.15,11.15,1.98,3.68,4.78,7.29,8.14,10.73,4.17,4.26,9.52,8.57,13.84,11.85,4.32,3.27,7.61,5.5,7.63,5.51,0,0,.02,0,.03,.01,.05,.03,.1,.06,.15,.08,.04,.02,.09,.05,.13,.06,.05,.02,.09,.03,.14,.04,.05,.02,.11,.03,.16,.05,.04,0,.09,0,.13,.01,.06,0,.11,.01,.17,.01,.05,0,.1,0,.14-.01,.05,0,.11,0,.16-.02,.05,0,.09-.03,.14-.04,.05-.02,.11-.03,.16-.05,.04-.02,.07-.04,.11-.06,.06-.03,.12-.06,.17-.1,0,0,.02,0,.02-.01,.02-.01,3.16-2.23,7.33-5.51,4.17-3.27,9.37-7.59,13.53-11.83,3.36-3.44,6.16-7.05,8.14-10.73,1.98-3.68,3.14-7.44,3.15-11.15,.01-4.12-1.49-8.15-4.72-11.59h0Z"/>
      <rect class="uuid-05474312-b897-4927-bf44-1d462791a017 dashboardIconStroke" x="182.23" y="72.02" width="45.68" height="45.68" rx=".32" ry=".32" transform="translate(-7.01 172.79) rotate(-45)"/>
      <path class="uuid-05474312-b897-4927-bf44-1d462791a017 dashboardIconStroke" d="M113.54,204.1c-2.86-.4-5.61-.08-8.09,.81-.17,.06-.28-.14-.15-.26,4.21-3.53,6.68-9.09,5.85-15.18-1.02-7.48-7.16-13.47-14.66-14.32-10.14-1.15-18.73,6.76-18.73,16.67,0,5.15,2.33,9.75,5.99,12.82,.14,.12,.02,.33-.15,.26-2.47-.88-5.21-1.21-8.07-.81-7.47,1.05-13.43,7.22-14.25,14.72-1.1,10.11,6.79,18.67,16.67,18.67,8.13,0,14.89-5.79,16.43-13.47,.04-.18,.27-.18,.3,0,1.54,7.68,8.3,13.47,16.43,13.47,9.89,0,17.78-8.55,16.67-18.67-.82-7.5-6.78-13.66-14.25-14.72Z"/>
      <path class="uuid-05474312-b897-4927-bf44-1d462791a017 dashboardIconStroke" d="M175.24,231.44c3.55,3.82,7.93,5.53,12.21,5.52,3.74,0,7.38-1.26,10.5-3.37,2.14-1.45,4.03-3.3,5.54-5.45,.19-.27,.58-.27,.77,0,1.51,2.15,3.41,4,5.54,5.45,3.12,2.11,6.76,3.37,10.5,3.37,4.28,.01,8.66-1.7,12.21-5.52,3.23-3.44,4.73-7.47,4.72-11.59,0-3.71-1.17-7.47-3.15-11.15-1.98-3.68-4.78-7.29-8.14-10.73-4.17-4.26-9.52-8.57-13.84-11.85-4.32-3.27-7.61-5.5-7.63-5.51,0,0-.02,0-.03-.01-.05-.03-.1-.06-.15-.08-.04-.02-.09-.05-.13-.06-.05-.02-.09-.03-.14-.04-.05-.02-.11-.03-.16-.05-.04,0-.09,0-.13-.01-.06,0-.11-.01-.17-.01-.05,0-.1,0-.14,.01-.05,0-.11,0-.16,.02-.05,0-.09,.03-.14,.04-.05,.02-.11,.03-.16,.05-.04,.02-.07,.04-.11,.06-.06,.03-.12,.06-.17,.1,0,0-.02,0-.02,.01-.02,.01-3.16,2.23-7.33,5.51-4.17,3.27-9.37,7.59-13.53,11.83-3.36,3.44-6.16,7.05-8.14,10.73-1.98,3.68-3.14,7.44-3.15,11.15-.01,4.12,1.49,8.15,4.72,11.59h0Z"/>
      <line class="uuid-6735b841-a506-44aa-8b9a-64d7ddec4dc1 dashboardIconStroke" x1="149.87" y1="61.52" x2="149.87" y2="237.5"/>
      <line class="uuid-6735b841-a506-44aa-8b9a-64d7ddec4dc1 dashboardIconStroke" x1="61.5" y1="149.25" x2="237.48" y2="149.25"/>
    </g>
  </g>
</svg>