<?xml version="1.0" encoding="utf-8"?>
<!-- Generator: Adobe Illustrator 27.0.1, SVG Export Plug-In . SVG Version: 6.00 Build 0)  -->
<svg version="1.1" id="Livello_1" xmlns="http://www.w3.org/2000/svg" xmlns:xlink="http://www.w3.org/1999/xlink" x="0px" y="0px"
	 viewBox="0 0 600 600" style="enable-background:new 0 0 600 600;" xml:space="preserve">
<style type="text/css">
	.st0{fill:none;stroke:#FFFFFF;stroke-width:33;stroke-linecap:round;stroke-linejoin:round;}
	.st1EditionIcon{fill:none;stroke:#FFFFFF;stroke-width:23;stroke-linecap:round;stroke-linejoin:round;stroke-dasharray:58.0429,58.0429;}
</style>
<path id="Tracciato_106_00000044153077866392854780000007635959852768606139_" class="st0" d="M65.4,165.1h323.4
	c25.5,0,46.2,20.7,46.2,46.2v323.4c0,25.5-20.7,46.2-46.2,46.2H65.4c-25.5,0-46.2-20.7-46.2-46.2V211.3
	C19.1,185.8,39.8,165.1,65.4,165.1L65.4,165.1z"/>
<path id="Tracciato_106_00000025411418612773051770000013845014819041545860_" class="st0" d="M86,165.1v-20.7
	c0-25.5,20.7-46.2,46.2-46.2l0,0h323.4c25.5,0,46.2,20.7,46.2,46.2v323.4c0,25.5-20.7,46.2-46.2,46.2H435"/>
<g id="Tracciato_106_00000003100455570995622270000003400026740989019274_">
	<g>
		<line class="st0" x1="165.3" y1="98.2" x2="165.3" y2="68.2"/>
		<path class="st1EditionIcon" d="M194.4,22.3c5.3-2.1,11.1-3.3,17.2-3.3h323.4c25.5,0,46.2,20.7,46.2,46.2v323.4c0,16.5-8.6,30.9-21.6,39.1"/>
		<line class="st0" x1="531.9" y1="434.8" x2="501.9" y2="434.8"/>
	</g>
</g>
</svg>
