<?xml version="1.0" encoding="UTF-8"?>
<svg id="Livello_1" data-name="Livello 1" xmlns="http://www.w3.org/2000/svg" viewBox="0 0 562 477">
  <defs>
    <style>
      .cls-1 {
        fill: #fff;
      }
    </style>
  </defs>
  <path class="cls-1" d="M522.24,46.52C492.37,14.36,455.44-.1,419.4,0c-31.5,0-62.2,10.63-88.47,28.4-19.55,13.25-36.71,30.51-49.93,50.64-13.23-20.13-30.38-37.39-49.94-50.64C204.8,10.63,174.08,0,142.6,0,106.55-.1,69.62,14.36,39.75,46.52,12.57,75.51-.1,109.43,0,144.15c.02,31.28,9.85,62.96,26.51,93.94,16.69,30.99,40.27,61.41,68.59,90.36,35.11,35.85,80.16,72.21,116.56,99.83,36.4,27.58,64.11,46.33,64.25,46.41,.06,.05,.15,.08,.22,.12,.41,.27,.86,.48,1.29,.7,.37,.18,.72,.39,1.1,.53,.38,.14,.77,.24,1.15,.35,.45,.14,.9,.29,1.37,.38,.37,.06,.74,.06,1.11,.11,.49,.04,.96,.11,1.46,.11,.41,0,.8-.08,1.21-.12,.45-.05,.9-.08,1.35-.17,.39-.08,.77-.22,1.16-.34,.45-.14,.9-.25,1.35-.44,.32-.14,.62-.32,.92-.48,.49-.25,.98-.51,1.44-.82,.06-.04,.14-.06,.19-.11,.14-.09,26.61-18.82,61.76-46.39,35.15-27.59,78.94-63.94,113.94-99.69,28.33-28.95,51.91-59.37,68.59-90.36,16.65-30.98,26.49-62.67,26.51-93.94,.09-34.71-12.57-68.63-39.76-97.62h0Z"/>
</svg>