<?xml version="1.0" encoding="utf-8"?>
<!-- Generator: Adobe Illustrator 26.4.0, SVG Export Plug-In . SVG Version: 6.00 Build 0)  -->
<svg version="1.1" id="Livello_1" xmlns="http://www.w3.org/2000/svg" xmlns:xlink="http://www.w3.org/1999/xlink" x="0px" y="0px"
	 viewBox="0 0 582 497" style="enable-background:new 0 0 582 497;" xml:space="preserve">
<style type="text/css">
	.st0-favorite-button-outline{fill:none;stroke:#FFFFFF;stroke-width:35;stroke-miterlimit:10;}
</style>
<g>
	<path class="st0-favorite-button-outline" d="M411.5,42.4c31.2,0,63.1,12.6,89,40.4l0,0c23.6,25.2,34.6,54.6,34.5,84.8c0,27.1-8.6,54.7-23,81.6
		c-14.5,26.9-35,53.3-59.6,78.5c-30.4,31-68.4,62.6-98.9,86.6c-30.5,23.9-53.5,40.2-53.6,40.3c0,0-0.1,0.1-0.2,0.1
		c-0.4,0.3-0.8,0.5-1.3,0.7c-0.3,0.1-0.5,0.3-0.8,0.4c-0.4,0.2-0.8,0.3-1.2,0.4c-0.3,0.1-0.7,0.2-1,0.3c-0.4,0.1-0.8,0.1-1.2,0.1
		c-0.4,0-0.7,0.1-1.1,0.1s-0.8-0.1-1.3-0.1c-0.3,0-0.6,0-1-0.1s-0.8-0.2-1.2-0.3c-0.3-0.1-0.7-0.2-1-0.3c-0.3-0.1-0.6-0.3-1-0.5
		s-0.8-0.4-1.1-0.6c-0.1,0-0.1-0.1-0.2-0.1c-0.1-0.1-24.2-16.3-55.8-40.3s-70.7-55.5-101.2-86.7C105,302.5,84.5,276,70,249.1
		s-23-54.4-23-81.6c-0.1-30.1,10.9-59.6,34.5-84.8c25.8-27.8,57.8-40.4,89-40.4c0.1,0,0.2,0,0.3,0c27.3,0,54,9.2,76.8,24.7
		c17,11.5,31.9,26.5,43.4,44c11.5-17.5,26.4-32.5,43.4-44c22.8-15.4,49.5-24.7,76.8-24.7C411.3,42.4,411.4,42.4,411.5,42.4"/>
</g>
</svg>
