<?xml version="1.0" encoding="utf-8"?>
<!-- Generator: Adobe Illustrator 26.4.0, SVG Export Plug-In . SVG Version: 6.00 Build 0)  -->
<svg version="1.1" id="Livello_1" xmlns="http://www.w3.org/2000/svg" xmlns:xlink="http://www.w3.org/1999/xlink" x="0px" y="0px"
	 viewBox="0 0 800 600" style="enable-background:new 0 0 800 600;" xml:space="preserve">
<style type="text/css">
	.st0{fill:none;stroke:#FFFFFF;stroke-width:35;stroke-linecap:round;stroke-linejoin:round;}
</style>
<path id="Tracciato_110_00000083058290256949861130000010850355907838972317_" class="st0" d="M466.6,544.4
	c-21.3,6.1-43.7,7.6-65.9,7.5C181,552,55.4,300.9,55.4,300.9c19.1-35.6,41.8-69.2,67.8-100.1c0,0,21.3-35.1,91-86.3
	c54.4-39.9,119-63.6,186.4-64.7C620.5,49.7,746,300.9,746,300.9c-39.1,72.8-93.2,136.3-158.9,186.4
	C587.1,487.3,534.8,524.9,466.6,544.4z M497.4,298.1c0-52.7-42.7-95.4-95.4-95.4s-95.4,42.7-95.4,95.4s42.7,95.4,95.4,95.4
	S497.4,350.8,497.4,298.1z"/>
</svg>
