<?xml version="1.0" encoding="utf-8"?>
<!-- Generator: Adobe Illustrator 27.0.1, SVG Export Plug-In . SVG Version: 6.00 Build 0)  -->
<svg version="1.1" id="uuid-c5200682-ff43-44a5-b0a1-3fbcbff46ec3"
	 xmlns="http://www.w3.org/2000/svg" xmlns:xlink="http://www.w3.org/1999/xlink" x="0px" y="0px" viewBox="0 0 525 525"
	 style="enable-background:new 0 0 525 525;" xml:space="preserve">
<style type="text/css">
	.st0{fill:none;stroke:#FFFFFF;stroke-width:22;stroke-linecap:round;stroke-linejoin:round;}
</style>
<path id="uuid-93e6a532-0019-44a4-98c0-3b388bb02a6d" class="st0" d="M507.4,189.8v264.4c0,30.1-24.4,54.4-54.4,54.4H72
	c-30.1,0-54.4-24.4-54.4-54.4V189.8"/>
<path class="st0" d="M432.4,132.6l75,57.5l-144.8,95.5L292,332.2c-18,11.8-41,11.8-59,0L17.6,190.1l77.2-59.2"/>
<line class="st0" x1="507.4" y1="454.2" x2="362.6" y2="287.4"/>
<line class="st0" x1="17.6" y1="454.2" x2="162.4" y2="287.4"/>
<path class="st0" d="M94.8,236.6v-150c0-37.9,24.4-68.6,54.4-68.6h226.6c30,0,54.4,30.7,54.4,68.6v150"/>
</svg>
