<?xml version="1.0" encoding="utf-8"?>
<!-- Generator: Adobe Illustrator 26.4.0, SVG Export Plug-In . SVG Version: 6.00 Build 0)  -->
<svg version="1.1" id="Livello_1" xmlns="http://www.w3.org/2000/svg" xmlns:xlink="http://www.w3.org/1999/xlink" x="0px" y="0px"
	 viewBox="0 0 800 600" style="enable-background:new 0 0 800 600;" xml:space="preserve">
<style type="text/css">
	.st0{fill:none;stroke:#FFFFFF;stroke-width:35;stroke-linecap:round;stroke-linejoin:round;}
</style>
<g id="Icon_feather-eye-off_00000072989104819361602920000002408517815256685971_" transform="translate(1.414 1.414)">
	<path id="Tracciato_110_00000147198641394853114550000007980321534583884218_" class="st0" d="M263.8,164.1
		c38.7-29.5,85.8-45.8,134.5-46.6c158.5,0,249,181.1,249,181.1C619.1,351,580,396.9,532.7,433 M445.8,474.2
		c-15.6,3.7-31.5,5.5-47.6,5.4c-158.5,0-249-181.1-249-181.1c13.7-25.7,30.1-49.9,48.9-72.2 M350.3,250.5
		c25.5-27.5,68.5-29.1,96-3.6c27.5,25.5,29.1,68.5,3.6,96c-1.1,1.2-2.3,2.4-3.6,3.6"/>
	<path id="Tracciato_111_00000106859846117825149250000008358171142451157658_" class="st0" d="M647.3,547.6L149.2,49.5"/>
</g>
</svg>
